<svg version="1.1" id="Layer_1" xmlns="http://www.w3.org/2000/svg" xmlns:xlink="http://www.w3.org/1999/xlink" x="0px" y="0px"
	 width="100%" viewBox="0 0 512 512" enable-background="new 0 0 512 512" xml:space="preserve">
<path fill="#828388" opacity="1.000000" stroke="none" 
	d="
M221.999939,449.332764 
	C188.675995,449.333344 155.852036,449.362671 123.028152,449.325165 
	C94.355911,449.292389 71.688217,426.624786 71.676826,397.905975 
	C71.643341,313.430206 71.639824,228.954391 71.676003,144.478622 
	C71.688286,115.784355 94.226173,93.136856 122.967087,92.788429 
	C127.965019,92.727829 132.967300,92.645866 137.961472,92.788071 
	C141.334183,92.884094 142.906662,91.663368 142.702011,88.143265 
	C142.528259,85.154961 142.595642,82.143600 142.716629,79.148918 
	C143.060287,70.643265 149.164688,64.674034 157.419266,64.674355 
	C165.571335,64.674660 171.829559,70.699875 172.250031,79.101166 
	C172.416443,82.425766 172.354980,85.765358 172.297348,89.096397 
	C172.254074,91.598549 173.339554,92.822281 175.871689,92.738373 
	C176.869827,92.705292 177.870651,92.761978 178.870255,92.762085 
	C230.855362,92.767593 282.840454,92.774712 334.825562,92.771492 
	C341.698395,92.771065 341.697021,92.746231 341.719147,85.949638 
	C341.727264,83.450562 341.594147,80.940102 341.783936,78.454567 
	C342.397675,70.415581 348.723053,64.643127 356.734711,64.674294 
	C364.678131,64.705193 370.839996,70.648758 371.292694,78.791588 
	C371.412781,80.951576 371.343506,83.122581 371.345734,85.288544 
	C371.353485,92.757408 371.350922,92.742050 379.061523,92.769737 
	C387.541382,92.800186 396.015259,92.417183 404.375183,94.658142 
	C426.321198,100.541008 442.298401,120.845680 442.311371,143.545975 
	C442.359894,228.521576 442.371094,313.497253 442.302826,398.472839 
	C442.280182,426.672791 419.584015,449.295135 391.449341,449.317871 
	C335.132904,449.363342 278.816406,449.332092 221.999939,449.332764 
M251.500000,419.848999 
	C297.317169,419.840881 343.134369,419.862366 388.951477,419.807831 
	C404.106323,419.789795 412.762573,411.108032 412.772156,395.937256 
	C412.808929,337.790894 412.731659,279.644379 412.887848,221.498459 
	C412.901245,216.515564 411.572357,214.925613 406.446259,214.932419 
	C306.814545,215.064835 207.182571,215.058914 107.550880,214.918365 
	C102.416245,214.911133 101.096420,216.550262 101.110474,221.511108 
	C101.274330,279.323822 101.526405,337.139587 101.038780,394.948517 
	C100.916229,409.476868 110.906609,420.269775 126.046165,420.059570 
	C167.523773,419.483704 209.014481,419.852997 251.500000,419.848999 
M341.714539,127.757004 
	C342.222961,123.708977 340.608124,122.267059 336.394012,122.276863 
	C283.573486,122.399704 230.752579,122.362473 177.931763,122.366905 
	C177.265289,122.366959 176.597122,122.408226 175.932632,122.374107 
	C173.413040,122.244728 172.262985,123.429161 172.294922,125.945602 
	C172.335068,129.110687 172.340057,132.278702 172.252319,135.442459 
	C172.000549,144.520050 165.717072,151.021729 157.302307,150.978287 
	C149.332230,150.937149 142.954666,144.239304 142.701950,135.575897 
	C142.614548,132.578903 142.570206,129.573929 142.686447,126.579590 
	C142.802444,123.591927 141.490936,122.326225 138.542542,122.366783 
	C133.045044,122.442413 127.528824,122.127884 122.051079,122.468788 
	C110.092720,123.212990 101.378922,132.502258 101.268417,144.479660 
	C101.159279,156.309158 101.403740,168.143845 101.155441,179.969147 
	C101.064056,184.320953 102.412605,185.696472 106.833847,185.691376 
	C206.976608,185.576218 307.119568,185.575592 407.262360,185.657532 
	C411.323792,185.660858 412.919098,184.502777 412.847351,180.286789 
	C412.640381,168.126450 412.860840,155.959351 412.714355,143.797318 
	C412.596283,133.995682 406.163940,126.055466 396.661743,123.297142 
	C392.728302,122.155342 388.744354,122.387695 384.758789,122.379417 
	C371.577087,122.352051 371.576996,122.366035 371.308807,135.266312 
	C371.301880,135.599487 371.309784,135.933228 371.293884,136.265900 
	C370.899323,144.521790 364.438416,150.957977 356.523590,150.982147 
	C349.061523,151.004929 342.357697,144.550293 341.804901,136.675613 
	C341.618591,134.021484 341.738251,131.345901 341.714539,127.757004 
z"/>
</svg>