<svg version="1.1" id="Layer_1" xmlns="http://www.w3.org/2000/svg" xmlns:xlink="http://www.w3.org/1999/xlink" x="0px" y="0px"
	 width="100%" viewBox="0 0 512 512" enable-background="new 0 0 512 512" xml:space="preserve">
<path fill="#D3D3D6" opacity="1.000000" stroke="none"
	d="
M125.173157,222.589447 
	C153.086472,228.776550 164.274750,257.339874 147.329025,278.692627 
	C139.426453,288.650421 128.749954,293.287689 116.035789,291.440186 
	C102.173286,289.425781 92.430595,281.469452 87.794189,268.291534 
	C79.265511,244.050705 99.713203,218.967346 125.173157,222.589447 
z"/>
<path fill="#D3D3D6" opacity="1.000000" stroke="none"
	d="
M386.349792,291.030396 
	C360.441040,283.472412 350.539032,255.546463 366.336456,235.622437 
	C376.029724,223.397049 392.187408,218.985916 406.251160,224.725555 
	C420.782959,230.656219 429.807251,245.526825 428.238190,260.956787 
	C426.777710,275.319153 414.311371,288.447968 399.629364,291.259949 
	C395.292725,292.090515 391.036102,292.009796 386.349792,291.030396 
z"/>
<path fill="#D3D3D6" opacity="1.000000" stroke="none"
	d="
M274.661072,227.175522 
	C288.316040,236.108582 294.395660,250.804947 290.672516,265.284485 
	C286.827362,280.238312 273.895203,290.871674 258.207764,291.978302 
	C240.838928,293.203491 223.576233,277.094757 222.532013,259.734741 
	C221.279022,238.904175 236.533951,224.361084 253.754318,222.324295 
	C261.153351,221.449158 267.906342,223.543503 274.661072,227.175522 
z"/>
</svg>